<svg data-v-3ad87630="" width="14" height="14" viewBox="0 0 18 20" fill="none" xmlns="http://www.w3.org/2000/svg"><path data-v-3ad87630="" d="M7.00001 3.50001C7.00022 4.34179 6.69705 5.15545 6.14605 5.79185C5.59506 6.42825 4.83316 6.84475 4.00001 6.96501V9.50001H10.25C10.8467 9.50001 11.419 9.26295 11.841 8.841C12.263 8.41904 12.5 7.84674 12.5 7.25001V6.85501C11.6963 6.61278 11.0064 6.08996 10.5559 5.38175C10.1053 4.67354 9.92411 3.82706 10.0453 2.99647C10.1664 2.16588 10.5819 1.40644 11.216 0.856462C11.8501 0.30648 12.6606 0.00254342 13.5 5.68414e-06C14.386 -0.00159009 15.2396 0.332865 15.8886 0.935907C16.5377 1.53895 16.9339 2.3657 16.9973 3.24939C17.0608 4.13308 16.7867 5.00795 16.2305 5.69751C15.6742 6.38708 14.8771 6.84004 14 6.96501V7.25001C14 8.24457 13.6049 9.19839 12.9017 9.90166C12.1984 10.6049 11.2446 11 10.25 11H4.00001V13.035C4.85393 13.1583 5.63224 13.5926 6.18553 14.2546C6.73883 14.9166 7.02811 15.7596 6.99786 16.6218C6.9676 17.4841 6.61994 18.3048 6.02161 18.9264C5.42328 19.5479 4.61645 19.9266 3.75599 19.9897C2.89553 20.0528 2.04208 19.7959 1.35947 19.2682C0.676865 18.7406 0.213201 17.9794 0.0574857 17.1308C-0.0982295 16.2822 0.0649776 15.406 0.515778 14.6703C0.966578 13.9347 1.6732 13.3915 2.50001 13.145V6.85501C1.69634 6.61278 1.0064 6.08996 0.555852 5.38175C0.105302 4.67354 -0.0758909 3.82706 0.0452743 2.99647C0.16644 2.16588 0.581902 1.40644 1.216 0.856462C1.85009 0.30648 2.66063 0.00254342 3.50001 5.68414e-06C4.42827 5.68414e-06 5.3185 0.368755 5.97488 1.02513C6.63126 1.68151 7.00001 2.57175 7.00001 3.50001V3.50001ZM3.50001 5.50001C4.03044 5.50001 4.53915 5.28929 4.91422 4.91422C5.28929 4.53915 5.50001 4.03044 5.50001 3.50001C5.50001 2.96957 5.28929 2.46086 4.91422 2.08579C4.53915 1.71072 4.03044 1.50001 3.50001 1.50001C2.96958 1.50001 2.46087 1.71072 2.08579 2.08579C1.71072 2.46086 1.50001 2.96957 1.50001 3.50001C1.50001 4.03044 1.71072 4.53915 2.08579 4.91422C2.46087 5.28929 2.96958 5.50001 3.50001 5.50001V5.50001ZM13.5 5.50001C14.0304 5.50001 14.5391 5.28929 14.9142 4.91422C15.2893 4.53915 15.5 4.03044 15.5 3.50001C15.5 2.96957 15.2893 2.46086 14.9142 2.08579C14.5391 1.71072 14.0304 1.50001 13.5 1.50001C12.9696 1.50001 12.4609 1.71072 12.0858 2.08579C11.7107 2.46086 11.5 2.96957 11.5 3.50001C11.5 4.03044 11.7107 4.53915 12.0858 4.91422C12.4609 5.28929 12.9696 5.50001 13.5 5.50001V5.50001ZM5.50001 16.5C5.50001 15.9696 5.28929 15.4609 4.91422 15.0858C4.53915 14.7107 4.03044 14.5 3.50001 14.5C2.96958 14.5 2.46087 14.7107 2.08579 15.0858C1.71072 15.4609 1.50001 15.9696 1.50001 16.5C1.50001 17.0304 1.71072 17.5391 2.08579 17.9142C2.46087 18.2893 2.96958 18.5 3.50001 18.5C4.03044 18.5 4.53915 18.2893 4.91422 17.9142C5.28929 17.5391 5.50001 17.0304 5.50001 16.5Z" fill="#FFFFFF"/></svg>