<svg width="16" height="32" viewBox="0 0 20 20" fill="none" xmlns="http://www.w3.org/2000/svg" data-v-3ad87630=""><path d="M12.923 6.52588H7.077C5.93 6.52588 5 7.44588 5 8.57988V11.4699C5 12.6049 5.93 13.5239 7.077 13.5239H12.923C14.07 13.5239 15 12.6039 15 11.4699V8.57988C15 7.44488 14.07 6.52588 12.923 6.52588ZM11.519 10.1659L8.784 11.4559C8.76727 11.4638 8.74881 11.4673 8.73034 11.4662C8.71187 11.4651 8.69398 11.4593 8.67833 11.4495C8.66267 11.4396 8.64976 11.4259 8.64079 11.4098C8.63182 11.3936 8.62708 11.3754 8.627 11.3569V8.69688C8.62717 8.67813 8.63212 8.65975 8.64139 8.64345C8.65066 8.62716 8.66394 8.61351 8.67997 8.60379C8.696 8.59407 8.71424 8.58861 8.73298 8.58793C8.75171 8.58724 8.7703 8.59136 8.787 8.59988L11.521 9.96988C11.539 9.97927 11.554 9.99346 11.5644 10.0109C11.5748 10.0283 11.5803 10.0482 11.58 10.0685C11.5798 10.0888 11.574 10.1086 11.5633 10.1258C11.5525 10.143 11.5372 10.1569 11.519 10.1659V10.1659Z" fill="#FFFFFF" data-v-3ad87630=""/> <path d="M4 2C3.46957 2 2.96086 2.21071 2.58579 2.58579C2.21071 2.96086 2 3.46957 2 4V16C2 16.5304 2.21071 17.0391 2.58579 17.4142C2.96086 17.7893 3.46957 18 4 18H16C16.5304 18 17.0391 17.7893 17.4142 17.4142C17.7893 17.0391 18 16.5304 18 16V4C18 3.46957 17.7893 2.96086 17.4142 2.58579C17.0391 2.21071 16.5304 2 16 2H4ZM4 0H16C17.0609 0 18.0783 0.421427 18.8284 1.17157C19.5786 1.92172 20 2.93913 20 4V16C20 17.0609 19.5786 18.0783 18.8284 18.8284C18.0783 19.5786 17.0609 20 16 20H4C2.93913 20 1.92172 19.5786 1.17157 18.8284C0.421427 18.0783 0 17.0609 0 16V4C0 2.93913 0.421427 1.92172 1.17157 1.17157C1.92172 0.421427 2.93913 0 4 0V0Z" fill="#FFFFFF" data-v-3ad87630=""/></svg>