<svg width="175.5" height="17" viewBox="0 0 351 34" fill="none" xmlns="http://www.w3.org/2000/svg"><path d="M0 16.6336C0 14.7854 0.376413 13.1709 1.12924 11.7901C1.90357 10.4092 2.96828 9.34708 4.32337 8.60356C5.69996 7.86004 7.27014 7.48828 9.03391 7.48828C11.2924 7.48828 13.1744 8.07248 14.6801 9.24086C16.2073 10.4092 17.2074 12.0556 17.6806 14.1799H11.8086C11.3139 12.8204 10.3567 12.1406 8.93711 12.1406C7.92618 12.1406 7.11958 12.5336 6.51732 13.3196C5.91506 14.0843 5.61393 15.189 5.61393 16.6336C5.61393 18.0781 5.91506 19.1934 6.51732 19.9794C7.11958 20.7441 7.92618 21.1265 8.93711 21.1265C10.3567 21.1265 11.3139 20.4467 11.8086 19.0872H17.6806C17.2074 21.169 16.2073 22.8047 14.6801 23.9944C13.1529 25.184 11.2709 25.7788 9.03391 25.7788C7.27014 25.7788 5.69996 25.4071 4.32337 24.6635C2.96828 23.92 1.90357 22.8579 1.12924 21.477C0.376413 20.0962 0 18.4817 0 16.6336Z" fill="url(#paint0_linear_367_199)"/> <path d="M28.8268 25.7788C27.0631 25.7788 25.4714 25.4071 24.0518 24.6635C22.6537 23.92 21.5459 22.8579 20.7286 21.477C19.9327 20.0962 19.5348 18.4817 19.5348 16.6336C19.5348 14.8066 19.9435 13.2027 20.7608 11.8219C21.5782 10.4199 22.6967 9.34708 24.1163 8.60356C25.5359 7.86004 27.1276 7.48828 28.8914 7.48828C30.6551 7.48828 32.2468 7.86004 33.6664 8.60356C35.086 9.34708 36.2045 10.4199 37.0219 11.8219C37.8392 13.2027 38.2479 14.8066 38.2479 16.6336C38.2479 18.4605 37.8285 20.075 36.9896 21.477C36.1723 22.8579 35.043 23.92 33.6019 24.6635C32.1823 25.4071 30.5906 25.7788 28.8268 25.7788ZM28.8268 21.0628C29.8808 21.0628 30.7734 20.6804 31.5047 19.9157C32.2576 19.1509 32.634 18.0569 32.634 16.6336C32.634 15.2102 32.2683 14.1162 31.537 13.3515C30.8272 12.5867 29.9453 12.2043 28.8914 12.2043C27.8159 12.2043 26.9233 12.5867 26.2134 13.3515C25.5036 14.095 25.1487 15.189 25.1487 16.6336C25.1487 18.0569 25.4929 19.1509 26.1812 19.9157C26.891 20.6804 27.7729 21.0628 28.8268 21.0628Z" fill="url(#paint1_linear_367_199)"/> <path d="M52.1446 7.55202C54.2525 7.55202 55.9302 8.2318 57.1778 9.59138C58.4468 10.9297 59.0813 12.7779 59.0813 15.1359V25.5239H53.5965V15.8688C53.5965 14.6792 53.2846 13.7551 52.6608 13.0965C52.037 12.438 51.1982 12.1087 50.1442 12.1087C49.0903 12.1087 48.2514 12.438 47.6276 13.0965C47.0039 13.7551 46.692 14.6792 46.692 15.8688V25.5239H41.1748V7.74321H46.692V10.1012C47.2512 9.31521 48.004 8.69916 48.9505 8.25305C49.8969 7.78569 50.9616 7.55202 52.1446 7.55202Z" fill="url(#paint2_linear_367_199)"/> <path d="M72.9493 20.9035V25.5239H70.1423C68.142 25.5239 66.5825 25.0459 65.4641 24.09C64.3456 23.1128 63.7863 21.5301 63.7863 19.3421V12.268H61.5924V7.74321H63.7863V3.40956H69.3035V7.74321H72.917V12.268H69.3035V19.4058C69.3035 19.9369 69.4325 20.3193 69.6906 20.553C69.9487 20.7866 70.3789 20.9035 70.9812 20.9035H72.9493Z" fill="url(#paint3_linear_367_199)"/> <path d="M74.9255 16.6017C74.9255 14.7748 75.2696 13.1709 75.9579 11.7901C76.6677 10.4092 77.6249 9.34708 78.8294 8.60356C80.0339 7.86004 81.3782 7.48828 82.8624 7.48828C84.1314 7.48828 85.2392 7.7432 86.1856 8.25305C87.1535 8.76289 87.8956 9.43205 88.4118 10.2605V7.74321H93.9289V25.5239H88.4118V23.0066C87.874 23.8351 87.1212 24.5042 86.1533 25.0141C85.2069 25.5239 84.0992 25.7788 82.8301 25.7788C81.3675 25.7788 80.0339 25.4071 78.8294 24.6635C77.6249 23.8988 76.6677 22.826 75.9579 21.4452C75.2696 20.0431 74.9255 18.4286 74.9255 16.6017ZM88.4118 16.6336C88.4118 15.274 88.0246 14.2012 87.2503 13.4152C86.4975 12.6292 85.5726 12.2362 84.4756 12.2362C83.3786 12.2362 82.443 12.6292 81.6686 13.4152C80.9158 14.1799 80.5394 15.2421 80.5394 16.6017C80.5394 17.9613 80.9158 19.0447 81.6686 19.8519C82.443 20.6379 83.3786 21.0309 84.4756 21.0309C85.5726 21.0309 86.4975 20.6379 87.2503 19.8519C88.0246 19.0659 88.4118 17.9931 88.4118 16.6336Z" fill="url(#paint4_linear_367_199)"/> <path d="M96.8233 16.6336C96.8233 14.7854 97.1998 13.1709 97.9526 11.7901C98.7269 10.4092 99.7916 9.34708 101.147 8.60356C102.523 7.86004 104.093 7.48828 105.857 7.48828C108.116 7.48828 109.998 8.07248 111.503 9.24086C113.031 10.4092 114.031 12.0556 114.504 14.1799H108.632C108.137 12.8204 107.18 12.1406 105.76 12.1406C104.75 12.1406 103.943 12.5336 103.341 13.3196C102.738 14.0843 102.437 15.189 102.437 16.6336C102.437 18.0781 102.738 19.1934 103.341 19.9794C103.943 20.7441 104.75 21.1265 105.76 21.1265C107.18 21.1265 108.137 20.4467 108.632 19.0872H114.504C114.031 21.169 113.031 22.8047 111.503 23.9944C109.976 25.184 108.094 25.7788 105.857 25.7788C104.093 25.7788 102.523 25.4071 101.147 24.6635C99.7916 23.92 98.7269 22.8579 97.9526 21.477C97.1998 20.0962 96.8233 18.4817 96.8233 16.6336Z" fill="url(#paint5_linear_367_199)"/> <path d="M127.489 20.9035V25.5239H124.682C122.682 25.5239 121.122 25.0459 120.004 24.09C118.885 23.1128 118.326 21.5301 118.326 19.3421V12.268H116.132V7.74321H118.326V3.40956H123.843V7.74321H127.457V12.268H123.843V19.4058C123.843 19.9369 123.972 20.3193 124.231 20.553C124.489 20.7866 124.919 20.9035 125.521 20.9035H127.489Z" fill="url(#paint6_linear_367_199)"/> <path d="M148.501 4.23805C151.039 4.23805 153.255 4.71603 155.147 5.67198C157.04 6.60669 158.492 7.9344 159.503 9.65511C160.536 11.3546 161.052 13.3196 161.052 15.5501C161.052 17.3558 160.729 19.0341 160.084 20.5848C159.46 22.1356 158.524 23.3783 157.277 24.313C156.051 25.2265 154.588 25.6832 152.889 25.6832C151.749 25.6832 150.803 25.4602 150.05 25.0141C149.318 24.5679 148.824 23.9413 148.566 23.134C147.963 23.9625 147.189 24.6104 146.243 25.0778C145.296 25.5239 144.264 25.747 143.145 25.747C141.554 25.747 140.295 25.2796 139.37 24.3449C138.467 23.3889 138.015 22.0931 138.015 20.4574C138.015 18.9066 138.338 17.4514 138.983 16.0918C139.629 14.711 140.521 13.6064 141.661 12.7779C142.801 11.9494 144.081 11.5351 145.501 11.5351C147.307 11.5351 148.533 12.1724 149.179 13.447L149.469 11.7582H153.921L152.502 19.7563C152.437 20.1387 152.405 20.4786 152.405 20.776C152.405 21.7107 152.824 22.1781 153.663 22.1781C154.696 22.1781 155.481 21.5301 156.019 20.2343C156.578 18.9172 156.857 17.4089 156.857 15.7095C156.857 13.2665 156.072 11.3546 154.502 9.97376C152.954 8.59294 150.77 7.90253 147.953 7.90253C145.544 7.90253 143.35 8.4761 141.371 9.62324C139.413 10.7704 137.876 12.3424 136.757 14.3393C135.639 16.3149 135.079 18.4923 135.079 20.8716C135.079 23.4421 135.832 25.4389 137.338 26.8622C138.865 28.2855 140.994 28.9972 143.726 28.9972C145.855 28.9972 147.759 28.6148 149.437 27.85L150.308 31.3233C148.2 32.2368 145.834 32.6935 143.21 32.6935C140.758 32.6935 138.596 32.2262 136.725 31.2915C134.875 30.3568 133.445 29.0291 132.434 27.3083C131.423 25.5876 130.917 23.5801 130.917 21.2858C130.917 18.0781 131.681 15.1784 133.208 12.5867C134.735 9.97376 136.832 7.9344 139.499 6.4686C142.188 4.98157 145.189 4.23805 148.501 4.23805ZM144.952 21.8276C145.554 21.8276 146.114 21.647 146.63 21.2858C147.168 20.9247 147.587 20.4467 147.888 19.8519C148.211 19.2359 148.372 18.5773 148.372 17.8763C148.372 17.154 148.168 16.5698 147.759 16.1237C147.35 15.6564 146.791 15.4227 146.081 15.4227C145.135 15.4227 144.35 15.8263 143.726 16.6336C143.102 17.4408 142.79 18.3968 142.79 19.5014C142.79 20.2024 142.973 20.7654 143.339 21.1903C143.705 21.6151 144.242 21.8276 144.952 21.8276Z" fill="url(#paint7_linear_367_199)"/> <path d="M172.734 25.7788C171.164 25.7788 169.766 25.5133 168.54 24.9822C167.314 24.4511 166.346 23.7288 165.636 22.8154C164.926 21.8807 164.528 20.8397 164.442 19.6926H169.895C169.959 20.3087 170.25 20.8079 170.766 21.1903C171.282 21.5726 171.917 21.7638 172.669 21.7638C173.358 21.7638 173.885 21.6364 174.25 21.3814C174.637 21.1053 174.831 20.7548 174.831 20.3299C174.831 19.8201 174.562 19.4483 174.024 19.2146C173.487 18.9597 172.616 18.6835 171.411 18.3861C170.12 18.0887 169.045 17.7807 168.185 17.462C167.324 17.1221 166.582 16.6017 165.958 15.9007C165.335 15.1784 165.023 14.2118 165.023 13.0009C165.023 11.9813 165.302 11.0572 165.862 10.2287C166.442 9.37894 167.281 8.70978 168.378 8.22118C169.497 7.73258 170.82 7.48828 172.347 7.48828C174.605 7.48828 176.38 8.04061 177.67 9.14527C178.982 10.2499 179.735 11.7157 179.929 13.5426H174.831C174.745 12.9266 174.465 12.438 173.992 12.0769C173.54 11.7157 172.938 11.5351 172.185 11.5351C171.54 11.5351 171.045 11.6626 170.701 11.9175C170.357 12.1512 170.185 12.4805 170.185 12.9053C170.185 13.4152 170.454 13.7976 170.992 14.0525C171.551 14.3074 172.411 14.5623 173.573 14.8172C174.906 15.1571 175.993 15.497 176.831 15.8369C177.67 16.1556 178.402 16.6867 179.025 17.4302C179.671 18.1525 180.004 19.1296 180.026 20.3618C180.026 21.4027 179.724 22.3374 179.122 23.1659C178.541 23.9731 177.692 24.6104 176.573 25.0778C175.476 25.5451 174.196 25.7788 172.734 25.7788Z" fill="url(#paint8_linear_367_199)"/> <path d="M194.403 25.5239L188.918 18.0675V25.5239H183.401V1.94377H188.918V14.9766L194.371 7.74321H201.178L193.693 16.6654L201.243 25.5239H194.403Z" fill="url(#paint9_linear_367_199)"/> <path d="M208.862 10.7067C209.508 9.72946 210.314 8.9647 211.282 8.41237C212.25 7.8388 213.326 7.55202 214.509 7.55202V13.3196H212.992C211.616 13.3196 210.583 13.617 209.895 14.2118C209.207 14.7854 208.862 15.8051 208.862 17.2709V25.5239H203.345V7.74321H208.862V10.7067Z" fill="url(#paint10_linear_367_199)"/> <path d="M219.92 5.89503C218.952 5.89503 218.157 5.61887 217.533 5.06654C216.931 4.49297 216.629 3.79194 216.629 2.96345C216.629 2.11372 216.931 1.41268 217.533 0.860356C218.157 0.286785 218.952 0 219.92 0C220.867 0 221.641 0.286785 222.243 0.860356C222.867 1.41268 223.179 2.11372 223.179 2.96345C223.179 3.79194 222.867 4.49297 222.243 5.06654C221.641 5.61887 220.867 5.89503 219.92 5.89503ZM222.663 7.74321V25.5239H217.146V7.74321H222.663Z" fill="url(#paint11_linear_367_199)"/> <path d="M232.178 10.2605C232.716 9.43205 233.458 8.76289 234.404 8.25305C235.351 7.7432 236.459 7.48828 237.728 7.48828C239.212 7.48828 240.556 7.86004 241.761 8.60356C242.965 9.34708 243.911 10.4092 244.6 11.7901C245.31 13.1709 245.664 14.7748 245.664 16.6017C245.664 18.4286 245.31 20.0431 244.6 21.4452C243.911 22.826 242.965 23.8988 241.761 24.6635C240.556 25.4071 239.212 25.7788 237.728 25.7788C236.48 25.7788 235.372 25.5239 234.404 25.0141C233.458 24.5042 232.716 23.8457 232.178 23.0384V34H226.661V7.74321H232.178V10.2605ZM240.051 16.6017C240.051 15.2421 239.663 14.1799 238.889 13.4152C238.136 12.6292 237.201 12.2362 236.082 12.2362C234.985 12.2362 234.049 12.6292 233.275 13.4152C232.522 14.2012 232.146 15.274 232.146 16.6336C232.146 17.9931 232.522 19.0659 233.275 19.8519C234.049 20.6379 234.985 21.0309 236.082 21.0309C237.179 21.0309 238.115 20.6379 238.889 19.8519C239.663 19.0447 240.051 17.9613 240.051 16.6017Z" fill="url(#paint12_linear_367_199)"/> <path d="M265.53 16.3468C265.53 16.8566 265.497 17.3877 265.433 17.94H252.947C253.033 19.0447 253.388 19.8944 254.012 20.4892C254.657 21.0628 255.442 21.3496 256.367 21.3496C257.743 21.3496 258.701 20.776 259.238 19.6289H265.11C264.809 20.7973 264.261 21.8488 263.465 22.7835C262.691 23.7182 261.712 24.4511 260.529 24.9822C259.346 25.5133 258.023 25.7788 256.56 25.7788C254.797 25.7788 253.226 25.4071 251.85 24.6635C250.473 23.92 249.398 22.8579 248.623 21.477C247.849 20.0962 247.462 18.4817 247.462 16.6336C247.462 14.7854 247.838 13.1709 248.591 11.7901C249.366 10.4092 250.441 9.34708 251.818 8.60356C253.194 7.86004 254.775 7.48828 256.56 7.48828C258.303 7.48828 259.851 7.84942 261.206 8.5717C262.561 9.29397 263.615 10.3243 264.368 11.6626C265.143 13.0009 265.53 14.5623 265.53 16.3468ZM259.884 14.9128C259.884 13.9781 259.561 13.2346 258.916 12.6823C258.27 12.13 257.464 11.8538 256.496 11.8538C255.571 11.8538 254.786 12.1193 254.141 12.6504C253.517 13.1815 253.13 13.9356 252.979 14.9128H259.884Z" fill="url(#paint13_linear_367_199)"/> <path d="M273.957 10.7067C274.603 9.72946 275.409 8.9647 276.377 8.41237C277.345 7.8388 278.421 7.55202 279.604 7.55202V13.3196H278.087C276.711 13.3196 275.678 13.617 274.99 14.2118C274.302 14.7854 273.957 15.8051 273.957 17.2709V25.5239H268.44V7.74321H273.957V10.7067Z" fill="url(#paint14_linear_367_199)"/> <path d="M284.822 25.7788C283.854 25.7788 283.058 25.5027 282.434 24.9503C281.832 24.3768 281.531 23.6757 281.531 22.8472C281.531 21.9975 281.832 21.2858 282.434 20.7123C283.058 20.1387 283.854 19.8519 284.822 19.8519C285.768 19.8519 286.543 20.1387 287.145 20.7123C287.769 21.2858 288.08 21.9975 288.08 22.8472C288.08 23.6757 287.769 24.3768 287.145 24.9503C286.543 25.5027 285.768 25.7788 284.822 25.7788Z" fill="url(#paint15_linear_367_199)"/> <path d="M290.249 16.6017C290.249 14.7748 290.594 13.1709 291.282 11.7901C291.992 10.4092 292.949 9.34708 294.153 8.60356C295.358 7.86004 296.702 7.48828 298.186 7.48828C299.369 7.48828 300.445 7.73258 301.413 8.22118C302.402 8.70978 303.177 9.36832 303.736 10.1968V1.94377H309.253V25.5239H303.736V22.9747C303.22 23.8244 302.478 24.5042 301.51 25.0141C300.563 25.5239 299.455 25.7788 298.186 25.7788C296.702 25.7788 295.358 25.4071 294.153 24.6635C292.949 23.8988 291.992 22.826 291.282 21.4452C290.594 20.0431 290.249 18.4286 290.249 16.6017ZM303.736 16.6336C303.736 15.274 303.349 14.2012 302.574 13.4152C301.821 12.6292 300.897 12.2362 299.8 12.2362C298.703 12.2362 297.767 12.6292 296.993 13.4152C296.24 14.1799 295.863 15.2421 295.863 16.6017C295.863 17.9613 296.24 19.0447 296.993 19.8519C297.767 20.6379 298.703 21.0309 299.8 21.0309C300.897 21.0309 301.821 20.6379 302.574 19.8519C303.349 19.0659 303.736 17.9931 303.736 16.6336Z" fill="url(#paint16_linear_367_199)"/> <path d="M330.215 16.3468C330.215 16.8566 330.183 17.3877 330.118 17.94H317.632C317.718 19.0447 318.073 19.8944 318.697 20.4892C319.342 21.0628 320.127 21.3496 321.052 21.3496C322.429 21.3496 323.386 20.776 323.924 19.6289H329.796C329.495 20.7973 328.946 21.8488 328.15 22.7835C327.376 23.7182 326.397 24.4511 325.214 24.9822C324.031 25.5133 322.708 25.7788 321.246 25.7788C319.482 25.7788 317.912 25.4071 316.535 24.6635C315.159 23.92 314.083 22.8579 313.309 21.477C312.535 20.0962 312.147 18.4817 312.147 16.6336C312.147 14.7854 312.524 13.1709 313.277 11.7901C314.051 10.4092 315.126 9.34708 316.503 8.60356C317.88 7.86004 319.461 7.48828 321.246 7.48828C322.988 7.48828 324.537 7.84942 325.892 8.5717C327.247 9.29397 328.301 10.3243 329.054 11.6626C329.828 13.0009 330.215 14.5623 330.215 16.3468ZM324.569 14.9128C324.569 13.9781 324.246 13.2346 323.601 12.6823C322.956 12.13 322.149 11.8538 321.181 11.8538C320.256 11.8538 319.471 12.1193 318.826 12.6504C318.202 13.1815 317.815 13.9356 317.665 14.9128H324.569Z" fill="url(#paint17_linear_367_199)"/> <path d="M341.224 20.4255L345.128 7.74321H351L344.612 25.5239H337.804L331.416 7.74321H337.32L341.224 20.4255Z" fill="url(#paint18_linear_367_199)"/> <defs><linearGradient id="paint0_linear_367_199" x1="285.832" y1="28.5865" x2="267.49" y2="-49.698" gradientUnits="userSpaceOnUse"><stop stop-color="#27AE60"/> <stop offset="0.255208" stop-color="#2F80ED"/> <stop offset="0.510417" stop-color="#9B51E0"/> <stop offset="0.75" stop-color="#EB5757"/> <stop offset="0.979167" stop-color="#F2994A"/></linearGradient> <linearGradient id="paint1_linear_367_199" x1="285.832" y1="28.5865" x2="267.49" y2="-49.698" gradientUnits="userSpaceOnUse"><stop stop-color="#27AE60"/> <stop offset="0.255208" stop-color="#2F80ED"/> <stop offset="0.510417" stop-color="#9B51E0"/> <stop offset="0.75" stop-color="#EB5757"/> <stop offset="0.979167" stop-color="#F2994A"/></linearGradient> <linearGradient id="paint2_linear_367_199" x1="285.832" y1="28.5865" x2="267.49" y2="-49.698" gradientUnits="userSpaceOnUse"><stop stop-color="#27AE60"/> <stop offset="0.255208" stop-color="#2F80ED"/> <stop offset="0.510417" stop-color="#9B51E0"/> <stop offset="0.75" stop-color="#EB5757"/> <stop offset="0.979167" stop-color="#F2994A"/></linearGradient> <linearGradient id="paint3_linear_367_199" x1="285.832" y1="28.5865" x2="267.49" y2="-49.698" gradientUnits="userSpaceOnUse"><stop stop-color="#27AE60"/> <stop offset="0.255208" stop-color="#2F80ED"/> <stop offset="0.510417" stop-color="#9B51E0"/> <stop offset="0.75" stop-color="#EB5757"/> <stop offset="0.979167" stop-color="#F2994A"/></linearGradient> <linearGradient id="paint4_linear_367_199" x1="285.832" y1="28.5865" x2="267.49" y2="-49.698" gradientUnits="userSpaceOnUse"><stop stop-color="#27AE60"/> <stop offset="0.255208" stop-color="#2F80ED"/> <stop offset="0.510417" stop-color="#9B51E0"/> <stop offset="0.75" stop-color="#EB5757"/> <stop offset="0.979167" stop-color="#F2994A"/></linearGradient> <linearGradient id="paint5_linear_367_199" x1="285.832" y1="28.5865" x2="267.49" y2="-49.698" gradientUnits="userSpaceOnUse"><stop stop-color="#27AE60"/> <stop offset="0.255208" stop-color="#2F80ED"/> <stop offset="0.510417" stop-color="#9B51E0"/> <stop offset="0.75" stop-color="#EB5757"/> <stop offset="0.979167" stop-color="#F2994A"/></linearGradient> <linearGradient id="paint6_linear_367_199" x1="285.832" y1="28.5865" x2="267.49" y2="-49.698" gradientUnits="userSpaceOnUse"><stop stop-color="#27AE60"/> <stop offset="0.255208" stop-color="#2F80ED"/> <stop offset="0.510417" stop-color="#9B51E0"/> <stop offset="0.75" stop-color="#EB5757"/> <stop offset="0.979167" stop-color="#F2994A"/></linearGradient> <linearGradient id="paint7_linear_367_199" x1="285.832" y1="28.5865" x2="267.49" y2="-49.698" gradientUnits="userSpaceOnUse"><stop stop-color="#27AE60"/> <stop offset="0.255208" stop-color="#2F80ED"/> <stop offset="0.510417" stop-color="#9B51E0"/> <stop offset="0.75" stop-color="#EB5757"/> <stop offset="0.979167" stop-color="#F2994A"/></linearGradient> <linearGradient id="paint8_linear_367_199" x1="285.832" y1="28.5865" x2="267.49" y2="-49.698" gradientUnits="userSpaceOnUse"><stop stop-color="#27AE60"/> <stop offset="0.255208" stop-color="#2F80ED"/> <stop offset="0.510417" stop-color="#9B51E0"/> <stop offset="0.75" stop-color="#EB5757"/> <stop offset="0.979167" stop-color="#F2994A"/></linearGradient> <linearGradient id="paint9_linear_367_199" x1="285.832" y1="28.5865" x2="267.49" y2="-49.698" gradientUnits="userSpaceOnUse"><stop stop-color="#27AE60"/> <stop offset="0.255208" stop-color="#2F80ED"/> <stop offset="0.510417" stop-color="#9B51E0"/> <stop offset="0.75" stop-color="#EB5757"/> <stop offset="0.979167" stop-color="#F2994A"/></linearGradient> <linearGradient id="paint10_linear_367_199" x1="285.832" y1="28.5865" x2="267.49" y2="-49.698" gradientUnits="userSpaceOnUse"><stop stop-color="#27AE60"/> <stop offset="0.255208" stop-color="#2F80ED"/> <stop offset="0.510417" stop-color="#9B51E0"/> <stop offset="0.75" stop-color="#EB5757"/> <stop offset="0.979167" stop-color="#F2994A"/></linearGradient> <linearGradient id="paint11_linear_367_199" x1="285.832" y1="28.5865" x2="267.49" y2="-49.698" gradientUnits="userSpaceOnUse"><stop stop-color="#27AE60"/> <stop offset="0.255208" stop-color="#2F80ED"/> <stop offset="0.510417" stop-color="#9B51E0"/> <stop offset="0.75" stop-color="#EB5757"/> <stop offset="0.979167" stop-color="#F2994A"/></linearGradient> <linearGradient id="paint12_linear_367_199" x1="285.832" y1="28.5865" x2="267.49" y2="-49.698" gradientUnits="userSpaceOnUse"><stop stop-color="#27AE60"/> <stop offset="0.255208" stop-color="#2F80ED"/> <stop offset="0.510417" stop-color="#9B51E0"/> <stop offset="0.75" stop-color="#EB5757"/> <stop offset="0.979167" stop-color="#F2994A"/></linearGradient> <linearGradient id="paint13_linear_367_199" x1="285.832" y1="28.5865" x2="267.49" y2="-49.698" gradientUnits="userSpaceOnUse"><stop stop-color="#27AE60"/> <stop offset="0.255208" stop-color="#2F80ED"/> <stop offset="0.510417" stop-color="#9B51E0"/> <stop offset="0.75" stop-color="#EB5757"/> <stop offset="0.979167" stop-color="#F2994A"/></linearGradient> <linearGradient id="paint14_linear_367_199" x1="285.832" y1="28.5865" x2="267.49" y2="-49.698" gradientUnits="userSpaceOnUse"><stop stop-color="#27AE60"/> <stop offset="0.255208" stop-color="#2F80ED"/> <stop offset="0.510417" stop-color="#9B51E0"/> <stop offset="0.75" stop-color="#EB5757"/> <stop offset="0.979167" stop-color="#F2994A"/></linearGradient> <linearGradient id="paint15_linear_367_199" x1="285.832" y1="28.5865" x2="267.49" y2="-49.698" gradientUnits="userSpaceOnUse"><stop stop-color="#27AE60"/> <stop offset="0.255208" stop-color="#2F80ED"/> <stop offset="0.510417" stop-color="#9B51E0"/> <stop offset="0.75" stop-color="#EB5757"/> <stop offset="0.979167" stop-color="#F2994A"/></linearGradient> <linearGradient id="paint16_linear_367_199" x1="285.832" y1="28.5865" x2="267.49" y2="-49.698" gradientUnits="userSpaceOnUse"><stop stop-color="#27AE60"/> <stop offset="0.255208" stop-color="#2F80ED"/> <stop offset="0.510417" stop-color="#9B51E0"/> <stop offset="0.75" stop-color="#EB5757"/> <stop offset="0.979167" stop-color="#F2994A"/></linearGradient> <linearGradient id="paint17_linear_367_199" x1="285.832" y1="28.5865" x2="267.49" y2="-49.698" gradientUnits="userSpaceOnUse"><stop stop-color="#27AE60"/> <stop offset="0.255208" stop-color="#2F80ED"/> <stop offset="0.510417" stop-color="#9B51E0"/> <stop offset="0.75" stop-color="#EB5757"/> <stop offset="0.979167" stop-color="#F2994A"/></linearGradient> <linearGradient id="paint18_linear_367_199" x1="285.832" y1="28.5865" x2="267.49" y2="-49.698" gradientUnits="userSpaceOnUse"><stop stop-color="#27AE60"/> <stop offset="0.255208" stop-color="#2F80ED"/> <stop offset="0.510417" stop-color="#9B51E0"/> <stop offset="0.75" stop-color="#EB5757"/> <stop offset="0.979167" stop-color="#F2994A"/></linearGradient></defs></svg>