<svg width="16" height="32" viewBox="0 0 20 20" fill="none" xmlns="http://www.w3.org/2000/svg" data-v-3ad87630=""><path d="M8.69501 6.937V8.314H7.68701V9.997H8.69501V15H10.767V9.997H12.157C12.157 9.997 12.288 9.19 12.351 8.307H10.775V7.157C10.775 6.984 11.001 6.753 11.225 6.753H12.353V5H10.818C8.64401 5 8.69501 6.685 8.69501 6.937Z" fill="#FFFFFF" data-v-3ad87630=""/> <path d="M4 2C3.46957 2 2.96086 2.21071 2.58579 2.58579C2.21071 2.96086 2 3.46957 2 4V16C2 16.5304 2.21071 17.0391 2.58579 17.4142C2.96086 17.7893 3.46957 18 4 18H16C16.5304 18 17.0391 17.7893 17.4142 17.4142C17.7893 17.0391 18 16.5304 18 16V4C18 3.46957 17.7893 2.96086 17.4142 2.58579C17.0391 2.21071 16.5304 2 16 2H4ZM4 0H16C17.0609 0 18.0783 0.421427 18.8284 1.17157C19.5786 1.92172 20 2.93913 20 4V16C20 17.0609 19.5786 18.0783 18.8284 18.8284C18.0783 19.5786 17.0609 20 16 20H4C2.93913 20 1.92172 19.5786 1.17157 18.8284C0.421427 18.0783 0 17.0609 0 16V4C0 2.93913 0.421427 1.92172 1.17157 1.17157C1.92172 0.421427 2.93913 0 4 0V0Z" fill="#FFFFFF" data-v-3ad87630=""/></svg>