<svg width="14" height="14" viewBox="0 0 34 33" fill="none" xmlns="http://www.w3.org/2000/svg" data-v-3ad87630=""><path d="M33 14.78C33.3716 14.5032 33.6473 14.1169 33.7884 13.6754C33.9294 13.234 33.9288 12.7594 33.7866 12.3183C33.6443 11.8773 33.3676 11.4917 32.9952 11.2159C32.6228 10.94 32.1734 10.7876 31.71 10.78L22.71 10.44C22.6657 10.437 22.6233 10.4212 22.5878 10.3946C22.5523 10.368 22.5253 10.3317 22.51 10.29L19.4 1.89002C19.2437 1.46266 18.9599 1.09364 18.587 0.832921C18.214 0.572199 17.77 0.432373 17.315 0.432373C16.8599 0.432373 16.4159 0.572199 16.043 0.832921C15.67 1.09364 15.3862 1.46266 15.23 1.89002L12.13 10.32C12.1146 10.3617 12.0876 10.398 12.0521 10.4246C12.0166 10.4512 11.9742 10.467 11.93 10.47L2.92996 10.81C2.46657 10.8176 2.01716 10.97 1.64476 11.2459C1.27235 11.5217 0.995623 11.9073 0.853373 12.3483C0.711123 12.7894 0.710485 13.264 0.851548 13.7054C0.992611 14.1469 1.2683 14.5332 1.63996 14.81L8.69996 20.36C8.7353 20.3878 8.76171 20.4254 8.77592 20.468C8.79014 20.5107 8.79155 20.5566 8.77996 20.6L6.34996 29.21C6.22404 29.6485 6.23624 30.1151 6.3849 30.5463C6.53356 30.9776 6.81147 31.3526 7.18081 31.6203C7.55016 31.888 7.99301 32.0355 8.44912 32.0426C8.90523 32.0497 9.35246 31.9161 9.72996 31.66L17.19 26.66C17.2267 26.6347 17.2703 26.6211 17.315 26.6211C17.3596 26.6211 17.4032 26.6347 17.44 26.66L24.9 31.66C25.2724 31.9249 25.718 32.0672 26.175 32.0672C26.6319 32.0672 27.0776 31.9249 27.45 31.66C27.8194 31.3948 28.0976 31.0217 28.2462 30.5919C28.3948 30.1621 28.4066 29.6968 28.28 29.26L25.83 20.62C25.817 20.5767 25.8177 20.5303 25.832 20.4874C25.8463 20.4444 25.8736 20.4069 25.91 20.38L33 14.78Z" fill="#FFFFFF" data-v-3ad87630=""/></svg>