<svg width="100" height="29.3333333333333" viewBox="0 0 600 176" fill="none" xmlns="http://www.w3.org/2000/svg" data-v-64ece786=""><path fill-rule="evenodd" clip-rule="evenodd" d="M307.266 39.3596V131.853H278.922V39.3596H307.266ZM162.079 131.853L133.901 93.0652V131.853H105.556V9.19168H133.901V76.9866L161.914 39.3596H196.889L158.433 85.7718L197.22 131.853H162.079ZM45.6786 133.013C37.1697 133.013 29.5448 131.631 22.804 128.869C16.0632 126.106 10.6484 122.018 6.55974 116.603C2.58155 111.188 0.481947 104.668 0.260937 97.0434H30.4289C30.8709 101.353 32.3627 104.668 34.9043 106.989C37.4459 109.199 40.7611 110.304 44.8498 110.304C49.049 110.304 52.3642 109.365 54.7953 107.486C57.2264 105.497 58.4419 102.79 58.4419 99.364C58.4419 96.4908 57.4474 94.115 55.4583 92.2364C53.5797 90.3578 51.2038 88.8107 48.3307 87.5951C45.5681 86.3796 41.5899 84.9983 36.3961 83.4512C28.8818 81.1306 22.7488 78.81 17.997 76.4894C13.2453 74.1688 9.15661 70.7431 5.73095 66.2124C2.30528 61.6817 0.592453 55.7696 0.592453 48.4763C0.592453 37.6468 4.51539 29.1931 12.3613 23.1153C20.2071 16.927 30.4289 13.8329 43.0265 13.8329C55.8451 13.8329 66.1773 16.927 74.0232 23.1153C81.8691 29.1931 86.0683 37.702 86.6208 48.642H55.9556C55.7346 44.8849 54.3533 41.9565 51.8116 39.8569C49.27 37.6468 46.0101 36.5417 42.0319 36.5417C38.6063 36.5417 35.8436 37.481 33.744 39.3596C31.6444 41.1277 30.5946 43.7246 30.5946 47.1502C30.5946 50.9074 32.3627 53.8358 35.8989 55.9354C39.435 58.035 44.9603 60.3004 52.4747 62.7315C59.989 65.2731 66.0668 67.7042 70.708 70.0248C75.4598 72.3454 79.5485 75.7158 82.9741 80.136C86.3998 84.5563 88.1126 90.2473 88.1126 97.2091C88.1126 103.839 86.3998 109.862 82.9741 115.277C79.659 120.691 74.7967 125.001 68.3874 128.206C61.9781 131.41 54.4085 133.013 45.6786 133.013ZM248.798 42.8405C243.825 45.7137 239.681 49.6918 236.366 54.7751V39.3596H208.022V131.853H236.366V88.9212C236.366 81.2964 238.134 75.9921 241.67 73.0085C245.207 69.9143 250.511 68.3672 257.583 68.3672H265.374V38.3651C259.296 38.3651 253.771 39.8569 248.798 42.8405ZM367.589 42.0117C362.727 44.6639 358.915 48.1448 356.152 52.4545V39.3596H327.807V175.944H356.152V118.923C358.915 123.123 362.727 126.548 367.589 129.2C372.562 131.852 378.253 133.179 384.662 133.179C392.287 133.179 399.194 131.245 405.382 127.377C411.57 123.399 416.433 117.818 419.969 110.635C423.616 103.342 425.439 94.9437 425.439 85.4403C425.439 75.9368 423.616 67.5937 419.969 60.4109C416.433 53.228 411.57 47.7028 405.382 43.8351C399.194 39.9674 392.287 38.0335 384.662 38.0335C378.143 38.0335 372.452 39.3596 367.589 42.0117ZM390.63 68.8645C394.608 72.8427 396.597 78.368 396.597 85.4403C396.597 92.5126 394.608 98.1484 390.63 102.348C386.652 106.436 381.845 108.481 376.209 108.481C370.573 108.481 365.766 106.436 361.788 102.348C357.92 98.2589 355.986 92.6784 355.986 85.6061C355.986 78.5337 357.92 72.9532 361.788 68.8645C365.766 64.7758 370.573 62.7315 376.209 62.7315C381.955 62.7315 386.762 64.7758 390.63 68.8645ZM527.498 84.1142C527.498 86.7664 527.332 89.529 527.001 92.4021H462.852C463.294 98.1484 465.118 102.569 468.322 105.663C471.637 108.646 475.671 110.138 480.423 110.138C487.495 110.138 492.412 107.155 495.175 101.187H525.343C523.796 107.265 520.978 112.735 516.889 117.597C512.911 122.46 507.883 126.272 501.805 129.035C495.728 131.797 488.931 133.179 481.417 133.179C472.356 133.179 464.289 131.245 457.216 127.377C450.144 123.509 444.619 117.984 440.641 110.801C436.662 103.618 434.673 95.22 434.673 85.6061C434.673 75.9921 436.607 67.5937 440.475 60.4109C444.453 53.228 449.978 47.7028 457.051 43.8351C464.123 39.9674 472.245 38.0335 481.417 38.0335C490.368 38.0335 498.324 39.9121 505.286 43.6693C512.248 47.4265 517.663 52.786 521.531 59.7478C525.509 66.7097 527.498 74.8318 527.498 84.1142ZM498.49 76.6551C498.49 71.7929 496.833 67.9252 493.517 65.0521C490.202 62.1789 486.058 60.7424 481.086 60.7424C476.334 60.7424 472.3 62.1237 468.985 64.8863C465.781 67.649 463.792 71.5719 463.018 76.6551H498.49ZM583.227 42.8405C578.255 45.7137 574.111 49.6918 570.796 54.7751V39.3596H542.451V131.853H570.796V88.9212C570.796 81.2964 572.564 75.9921 576.1 73.0085C579.636 69.9143 584.94 68.3672 592.013 68.3672H599.803V38.3651C593.725 38.3651 588.2 39.8569 583.227 42.8405Z" fill="white" data-v-64ece786=""/> <path d="M296.008 24.3154C294.682 26.6121 291.367 26.6121 290.041 24.3154L279.386 5.85934C278.06 3.56259 279.717 0.69165 282.369 0.69165L303.681 0.69165C306.333 0.69165 307.99 3.56259 306.664 5.85934L296.008 24.3154Z" fill="#33A9DC" data-v-64ece786=""/></svg>