<svg width="14" height="14" viewBox="0 0 20 17" fill="none" xmlns="http://www.w3.org/2000/svg" data-v-3ad87630=""><path d="M18.145 5.26997L19.708 3.70697L18.294 2.29297L16.586 3.99997C15.536 3.36997 14.312 2.99997 13 2.99997C9.141 2.99997 6 6.13997 6 9.99997C6 13.86 9.141 17 13 17C16.859 17 20 13.86 20 9.99997C19.9992 8.24599 19.3368 6.55687 18.145 5.26997ZM13 15C10.243 15 8 12.757 8 9.99997C8 7.24297 10.243 4.99997 13 4.99997C15.757 4.99997 18 7.24297 18 9.99997C18 12.757 15.757 15 13 15Z" fill="#FFFFFF" data-v-3ad87630=""/> <path d="M12 7H14V11H12V7ZM11 0H15V2H11V0ZM1 5H5V7H1V5ZM1 13H5V15H1V13ZM0 9H3.99V11H0V9Z" fill="#FFFFFF" data-v-3ad87630=""/></svg>