<svg data-v-3ad87630="" width="16" height="16" viewBox="0 0 11 11" fill="none" xmlns="http://www.w3.org/2000/svg"><path data-v-3ad87630="" d="M4.00006 2.63354e-07C3.37434 0.000334705 2.75743 0.147458 2.19891 0.429545C1.64039 0.711631 1.15583 1.12081 0.784186 1.6242C0.412543 2.1276 0.164178 2.71115 0.0590538 3.32798C-0.0460704 3.9448 -0.00502174 4.57768 0.178901 5.17576C0.362823 5.77383 0.684489 6.32042 1.11804 6.77158C1.5516 7.22275 2.08495 7.56591 2.67524 7.77348C3.26552 7.98106 3.89627 8.04726 4.51678 7.96676C5.1373 7.88627 5.73028 7.66132 6.24806 7.31L8.72006 9.78C8.78872 9.85369 8.87152 9.91279 8.96352 9.95378C9.05552 9.99477 9.15483 10.0168 9.25554 10.0186C9.35624 10.0204 9.45627 10.0018 9.54966 9.96412C9.64305 9.9264 9.72788 9.87026 9.7991 9.79904C9.87032 9.72782 9.92646 9.64299 9.96418 9.5496C10.0019 9.45621 10.0204 9.35618 10.0187 9.25548C10.0169 9.15478 9.99483 9.05546 9.95384 8.96346C9.91285 8.87146 9.85375 8.78866 9.78006 8.72L7.31006 6.248C7.7187 5.64658 7.95567 4.94515 7.9955 4.21914C8.03534 3.49312 7.87652 2.76998 7.53614 2.12746C7.19575 1.48495 6.68667 0.947364 6.06364 0.572517C5.4406 0.197669 4.72717 -0.000263541 4.00006 2.63354e-07V2.63354e-07ZM1.50006 4C1.50006 3.33696 1.76345 2.70107 2.23229 2.23223C2.70113 1.76339 3.33702 1.5 4.00006 1.5C4.6631 1.5 5.29899 1.76339 5.76783 2.23223C6.23667 2.70107 6.50006 3.33696 6.50006 4C6.50006 4.66304 6.23667 5.29893 5.76783 5.76777C5.29899 6.23661 4.6631 6.5 4.00006 6.5C3.33702 6.5 2.70113 6.23661 2.23229 5.76777C1.76345 5.29893 1.50006 4.66304 1.50006 4Z" fill="#FFFFFF"/></svg>