<svg width="40" height="32" viewBox="0 0 437 257" fill="none" xmlns="http://www.w3.org/2000/svg" data-v-3ad87630=""><path d="M19.3488 107.435C13.518 113.216 10.7414 120.903 11.019 128.499C10.7407 136.095 13.5172 143.783 19.3487 149.565L108.354 237.81C113.88 243.289 121.107 246.019 128.327 246C135.563 246.03 142.809 243.301 148.347 237.81L237.353 149.565C237.704 149.217 238.044 148.862 238.372 148.501C238.737 148.175 239.094 147.838 239.445 147.49L308.649 78.8772L358.7 128.5L288.848 197.755C277.716 208.791 277.716 226.773 288.848 237.81C299.862 248.73 317.632 248.73 328.646 237.81L417.651 149.565C423.482 143.784 426.259 136.097 425.981 128.501C426.259 120.904 423.483 113.217 417.651 107.435L328.646 19.1899C323.114 13.7051 315.877 10.9752 308.649 11.0002C301.42 10.9756 294.185 13.7055 288.653 19.1899L199.647 107.435C199.296 107.783 198.956 108.138 198.628 108.499C198.263 108.825 197.906 109.162 197.555 109.51L128.351 178.123L78.3004 128.5L148.152 59.2449C159.284 48.2085 159.284 30.2264 148.152 19.1899C137.138 8.27003 119.368 8.27005 108.354 19.1899L19.3488 107.435Z" stroke="#FFFCFC" stroke-width="22" data-v-3ad87630=""/></svg>