<svg width="256" height="75.09333333333325" viewBox="0 0 497 99" fill="none" xmlns="http://www.w3.org/2000/svg" data-v-64ece786=""><path fill-rule="evenodd" clip-rule="evenodd" d="M349.156 25.5422V72.2868H334.831V25.5422H349.156ZM275.781 72.2868L261.54 52.6842V72.2868H247.215V10.2958H261.54V44.5584L275.697 25.5422H293.373L273.938 48.9983L293.54 72.2868H275.781ZM216.953 72.8732C212.653 72.8732 208.8 72.1751 205.393 70.7789C201.986 69.3827 199.25 67.3163 197.183 64.5798C195.173 61.8433 194.112 58.5482 194 54.6947H209.246C209.47 56.8728 210.224 58.5482 211.508 59.721C212.793 60.838 214.468 61.3965 216.535 61.3965C218.657 61.3965 220.332 60.9218 221.561 59.9724C222.79 58.9671 223.404 57.5988 223.404 55.8675C223.404 54.4155 222.901 53.2148 221.896 52.2654C220.947 51.3159 219.746 50.5341 218.294 49.9198C216.898 49.3054 214.887 48.6073 212.262 47.8255C208.465 46.6527 205.365 45.4799 202.964 44.3071C200.562 43.1343 198.496 41.403 196.764 39.1132C195.033 36.8235 194.168 33.8356 194.168 30.1497C194.168 24.6766 196.15 20.4042 200.115 17.3326C204.081 14.2051 209.246 12.6414 215.613 12.6414C222.091 12.6414 227.313 14.2051 231.278 17.3326C235.244 20.4042 237.366 24.7045 237.645 30.2334H222.147C222.036 28.3346 221.337 26.8546 220.053 25.7935C218.768 24.6766 217.121 24.1181 215.11 24.1181C213.379 24.1181 211.983 24.5928 210.922 25.5422C209.861 26.4358 209.33 27.7482 209.33 29.4795C209.33 31.3783 210.224 32.8583 212.011 33.9194C213.798 34.9805 216.59 36.1254 220.388 37.354C224.186 38.6385 227.257 39.8672 229.603 41.04C232.004 42.2128 234.071 43.9161 235.802 46.15C237.533 48.3839 238.399 51.2601 238.399 54.7785C238.399 58.1294 237.533 61.1731 235.802 63.9096C234.127 66.6462 231.669 68.8242 228.43 70.4438C225.191 72.0634 221.365 72.8732 216.953 72.8732ZM319.607 27.3014C317.094 28.7535 315 30.764 313.324 33.333V25.5422H298.999V72.2868H313.324V50.5899C313.324 46.7364 314.218 44.0557 316.005 42.5478C317.792 40.9841 320.473 40.2022 324.047 40.2022H327.984V25.0396C324.913 25.0396 322.12 25.7935 319.607 27.3014ZM379.643 26.8826C377.185 28.2229 375.258 29.9821 373.862 32.1602V25.5422H359.537V94.57H373.862V65.7526C375.258 67.8748 377.185 69.6061 379.643 70.9464C382.156 72.2868 385.032 72.957 388.271 72.957C392.124 72.957 395.615 71.9796 398.742 70.0249C401.87 68.0144 404.327 65.1941 406.114 61.564C407.957 57.8781 408.879 53.6336 408.879 48.8307C408.879 44.0278 407.957 39.8113 406.114 36.1812C404.327 32.5511 401.87 29.7587 398.742 27.804C395.615 25.8494 392.124 24.872 388.271 24.872C384.976 24.872 382.1 25.5422 379.643 26.8826ZM391.287 40.4536C393.297 42.4641 394.303 45.2565 394.303 48.8307C394.303 52.405 393.297 55.2532 391.287 57.3754C389.276 59.4418 386.847 60.475 383.999 60.475C381.15 60.475 378.721 59.4418 376.71 57.3754C374.756 55.3091 373.778 52.4888 373.778 48.9145C373.778 45.3402 374.756 42.5199 376.71 40.4536C378.721 38.3872 381.15 37.354 383.999 37.354C386.903 37.354 389.332 38.3872 391.287 40.4536ZM460.458 48.1605C460.458 49.5009 460.374 50.8971 460.207 52.3491H427.787C428.01 55.2532 428.932 57.4871 430.551 59.0509C432.227 60.5588 434.265 61.3127 436.667 61.3127C440.241 61.3127 442.726 59.8048 444.122 56.789H459.369C458.587 59.8607 457.163 62.6251 455.097 65.0824C453.086 67.5397 450.545 69.4665 447.473 70.8627C444.402 72.2589 440.967 72.957 437.169 72.957C432.59 72.957 428.513 71.9796 424.939 70.0249C421.364 68.0703 418.572 65.2779 416.562 61.6478C414.551 58.0177 413.546 53.7733 413.546 48.9145C413.546 44.0557 414.523 39.8113 416.478 36.1812C418.488 32.5511 421.281 29.7587 424.855 27.804C428.429 25.8494 432.534 24.872 437.169 24.872C441.693 24.872 445.714 25.8214 449.233 27.7203C452.751 29.6191 455.487 32.3277 457.442 35.8461C459.453 39.3645 460.458 43.4693 460.458 48.1605ZM445.798 44.3908C445.798 41.9335 444.96 39.9789 443.285 38.5268C441.609 37.0748 439.515 36.3487 437.002 36.3487C434.6 36.3487 432.562 37.0468 430.887 38.443C429.267 39.8392 428.262 41.8218 427.871 44.3908H445.798ZM488.623 27.3014C486.11 28.7535 484.015 30.764 482.34 33.333V25.5422H468.015V72.2868H482.34V50.5899C482.34 46.7364 483.234 44.0557 485.021 42.5478C486.808 40.9841 489.488 40.2022 493.063 40.2022H497V25.0396C493.928 25.0396 491.136 25.7935 488.623 27.3014Z" fill="white" data-v-64ece786=""/> <path d="M343.466 17.9391C342.796 19.0998 341.121 19.0998 340.451 17.9391L335.065 8.61168C334.395 7.45093 335.233 6 336.573 6L347.344 6C348.684 6 349.522 7.45093 348.852 8.61168L343.466 17.9391Z" fill="#33A9DC" data-v-64ece786=""/> <path d="M8.425 41.007C6.04219 43.3337 4.9027 46.4334 5.00654 49.4994C4.9024 52.5658 6.04188 55.666 8.42496 57.9929L41.9436 90.7224C44.1884 92.9143 47.116 94.0068 50.0415 93.9999C52.9731 94.0114 55.9082 92.9189 58.1576 90.7224L91.6763 57.993C91.8084 57.864 91.9367 57.7325 92.0612 57.5989C92.1979 57.4775 92.3323 57.3524 92.4644 57.2235L117.949 32.3385L135.525 49.5L109.916 74.5059C105.349 78.965 105.349 86.2633 109.916 90.7224C114.391 95.0925 121.581 95.0925 126.056 90.7224L159.575 57.9929C161.958 55.6662 163.097 52.5664 162.993 49.5003C163.098 46.434 161.958 43.3339 159.575 41.007L126.056 8.27757C123.809 6.08327 120.878 4.99077 117.949 5.00006C115.021 4.99094 112.089 6.08345 109.842 8.27757L76.3237 41.007C76.1916 41.136 76.0632 41.2675 75.9387 41.4011C75.8021 41.5225 75.6677 41.6476 75.5356 41.7765L50.0506 66.6615L32.4753 49.5L58.0843 24.494C62.6509 20.0349 62.6509 12.7367 58.0843 8.27757C53.6088 3.90747 46.4191 3.90749 41.9436 8.27757L8.425 41.007Z" stroke="#FFFCFC" stroke-width="10" data-v-64ece786=""/></svg>