<svg width="16" height="16" viewBox="0 0 640 385" fill="none" xmlns="http://www.w3.org/2000/svg" data-v-3ad87630=""><path d="M623.2 129C571.4 132.5 497.5 183.7 460.1 200.5C431 213.6 405.9 224.9 384 224.9C361.4 224.9 358 208.7 362.7 173C363.8 165 374.4 93.8001 320 96.9001C294.9 98.4001 255.7 121.7 150.5 222.9L192 119.2C222.4 43.3001 138.8 -32.2999 62.3 16.4001L7.4 53.3001C-3.8147e-06 58.0001 -2.2 67.9001 2.5 75.4001L19.7 102.4C24.4 109.9 34.3 112.1 41.8 107.3L99.8 68.4001C118.2 56.7001 140.5 75.6001 132.5 95.5001L34.3 341.1C27.5 358 37 385 64 385C72.3 385 80.5 381.8 86.6 375.6C128.8 333.4 241.3 224.9 297.8 179.8C295.6 208.3 295.7 238.7 318.4 263.6C333.7 280.4 355.7 288.9 383.9 288.9C419.5 288.9 451.9 274.3 486.2 258.9C519.2 244.1 585.2 196.3 624.6 193.1C633.1 192.4 639.8 185.8 639.8 177.3V145.2C640 136.1 632.3 128.4 623.2 129V129Z" fill="#FFFFFF" data-v-3ad87630=""/></svg>