<svg width="14" height="14" viewBox="0 0 14 16" fill="none" xmlns="http://www.w3.org/2000/svg" data-v-3ad87630=""><g clip-path="url(#clip0_276_389)" data-v-3ad87630=""><path fill-rule="evenodd" clip-rule="evenodd" d="M9.39501 0.553101C9.33162 0.426137 9.24194 0.314116 9.13193 0.224484C9.02191 0.134852 8.89408 0.0696616 8.75692 0.0332449C8.61977 -0.00317189 8.47644 -0.00998066 8.33645 0.0132709C8.19646 0.0365224 8.06302 0.0893017 7.945 0.168101C7.6 0.398101 7.33101 0.726101 7.12301 1.0481C6.90901 1.3781 6.72001 1.7611 6.55301 2.1641C6.21901 2.9681 5.93901 3.9321 5.71301 4.8981C5.43969 6.07859 5.23501 7.27393 5.10001 8.4781C4.69314 8.2158 4.36622 7.84668 4.15501 7.4111C3.82701 6.7311 3.757 5.8771 3.757 4.7571C3.75696 4.55935 3.69829 4.36605 3.58841 4.20164C3.47852 4.03723 3.32236 3.90909 3.13966 3.83342C2.95696 3.75775 2.75593 3.73795 2.56197 3.77652C2.36802 3.81509 2.18986 3.91029 2.05001 4.0501C1.39917 4.69954 0.883032 5.47114 0.531232 6.32061C0.179433 7.17008 -0.00109811 8.08067 5.02513e-06 9.0001C8.80858e-05 10.1512 0.284051 11.2846 0.826743 12.2997C1.36944 13.3149 2.15411 14.1806 3.11125 14.82C4.0684 15.4595 5.16849 15.8531 6.31407 15.9659C7.45965 16.0787 8.61536 15.9073 9.67886 15.4667C10.7423 15.0262 11.6808 14.3302 12.4111 13.4404C13.1413 12.5506 13.6409 11.4944 13.8655 10.3654C14.0901 9.23637 14.0328 8.06941 13.6987 6.96784C13.3645 5.86628 12.7639 4.86411 11.95 4.0501C11.358 3.4591 10.97 3.0651 10.602 2.5831C10.239 2.1071 9.87801 1.5201 9.39501 0.553101V0.553101ZM9.12 13.1201C8.70046 13.5391 8.16615 13.8244 7.58455 13.94C7.00296 14.0555 6.40016 13.9961 5.85231 13.7692C5.30446 13.5424 4.83612 13.1583 4.50644 12.6654C4.17676 12.1726 4.00053 11.5931 4.00001 11.0001C4.00001 11.0001 4.87901 11.5001 6.50001 11.5001C6.50001 10.5001 7.00001 7.5001 7.75001 7.0001C8.25001 8.0001 8.53601 8.2931 9.12101 8.8791C9.40004 9.15728 9.62135 9.48787 9.7722 9.85187C9.92305 10.2159 10.0005 10.6061 10 11.0001C10.0005 11.3941 9.92305 11.7843 9.7722 12.1483C9.62135 12.5123 9.40004 12.8429 9.12101 13.1211L9.12 13.1201Z" fill="#FFFFFF" data-v-3ad87630=""/></g> <defs data-v-3ad87630=""><clipPath id="clip0_276_389" data-v-3ad87630=""><rect width="14" height="16.0003" fill="white" transform="translate(0 -0.000244141)" data-v-3ad87630=""/></clipPath></defs></svg>