<svg width="197" height="197" viewBox="0 0 197 197" fill="none" xmlns="http://www.w3.org/2000/svg">
<circle cx="98.5" cy="98.5" r="98.5" fill="black"/>
<circle cx="98.5" cy="98.5" r="91.5" fill="#2E67CC"/>
<circle cx="98.5" cy="98.5" r="74.5" stroke="black" stroke-opacity="0.15" stroke-width="12"/>
<path fill-rule="evenodd" clip-rule="evenodd" d="M36.7128 166C27.5787 157.636 20.1477 147.443 15 136H181.975C176.827 147.443 169.396 157.636 160.262 166H36.7128Z" fill="url(#paint0_linear_278_328)"/>
<path d="M44.5423 85.115C42.7766 86.8684 41.9307 89.196 42.0045 91.4996C41.9305 93.8034 42.7764 96.1313 44.5423 97.8849L68.3224 121.5C70.0057 123.171 72.2072 124.005 74.4073 124C76.612 124.008 78.8193 123.175 80.5062 121.5L104.286 97.885C104.38 97.7919 104.471 97.6972 104.56 97.601C104.656 97.5132 104.752 97.4228 104.845 97.3297L122.586 79.7127L134.455 91.5L116.546 109.285C113.156 112.651 113.156 118.134 116.546 121.5C119.903 124.833 125.321 124.833 128.678 121.5L152.458 97.8849C154.223 96.1315 155.069 93.8039 154.996 91.5003C155.07 89.1965 154.224 86.8686 152.458 85.115L128.678 61.5001C126.992 59.8267 124.788 58.9934 122.585 59C120.383 58.9935 118.179 59.8268 116.494 61.5001L92.7137 85.115C92.62 85.2081 92.5289 85.3028 92.4404 85.399C92.3436 85.4868 92.2483 85.5772 92.1546 85.6703L74.4143 103.287L62.5445 91.5L80.4541 73.7148C83.8438 70.3487 83.8438 64.8663 80.4541 61.5001C77.0973 58.1666 71.6792 58.1666 68.3224 61.5001L44.5423 85.115Z" fill="white" stroke="#1A3A74" stroke-width="8"/>
<path fill-rule="evenodd" clip-rule="evenodd" d="M92.6073 196.827C88.2844 178.082 86 158.558 86 138.5C86 88.9632 99.9338 42.6808 124.096 3.3584C166.086 14.6269 197 52.9533 197 98.5C197 152.9 152.9 197 98.5 197C96.5216 197 94.5569 196.942 92.6073 196.827Z" fill="url(#paint1_linear_278_328)" fill-opacity="0.15"/>
<path d="M43.7503 140.407C44.5447 139.248 46.2553 139.248 47.0497 140.407L49.7237 144.309C49.9838 144.688 50.3667 144.967 50.808 145.097L55.345 146.434C56.6929 146.831 57.2215 148.458 56.3646 149.572L53.4802 153.321C53.1997 153.685 53.0534 154.136 53.066 154.595L53.1961 159.324C53.2347 160.728 51.8508 161.734 50.5268 161.263L46.0701 159.678C45.6367 159.524 45.1633 159.524 44.7299 159.678L40.2732 161.263C38.9492 161.734 37.5653 160.728 37.6039 159.324L37.734 154.595C37.7466 154.136 37.6003 153.685 37.3198 153.321L34.4354 149.572C33.5785 148.458 34.1071 146.831 35.455 146.434L39.992 145.097C40.4333 144.967 40.8162 144.688 41.0763 144.309L43.7503 140.407Z" fill="#333333"/>
<path d="M70.5502 140.407C71.3446 139.248 73.0553 139.248 73.8497 140.407L76.5237 144.309C76.7837 144.688 77.1666 144.967 77.6079 145.097L82.1449 146.434C83.4928 146.831 84.0214 148.458 83.1645 149.572L80.2801 153.321C79.9996 153.685 79.8533 154.136 79.866 154.595L79.996 159.324C80.0347 160.728 78.6507 161.734 77.3267 161.263L72.87 159.678C72.4366 159.524 71.9633 159.524 71.5298 159.678L67.0732 161.263C65.7492 161.734 64.3652 160.728 64.4038 159.324L64.5339 154.595C64.5465 154.136 64.4003 153.685 64.1197 153.321L61.2353 149.572C60.3784 148.458 60.907 146.831 62.2549 146.434L66.792 145.097C67.2332 144.967 67.6161 144.688 67.8762 144.309L70.5502 140.407Z" fill="#333333"/>
<path d="M97.3502 140.407C98.1446 139.248 99.8553 139.248 100.65 140.407L103.324 144.309C103.584 144.688 103.967 144.967 104.408 145.097L108.945 146.434C110.293 146.831 110.821 148.458 109.965 149.572L107.08 153.321C106.8 153.685 106.653 154.136 106.666 154.595L106.796 159.324C106.835 160.728 105.451 161.734 104.127 161.263L99.6701 159.678C99.2366 159.524 98.7633 159.524 98.3299 159.678L93.8732 161.263C92.5492 161.734 91.1653 160.728 91.2039 159.324L91.3339 154.595C91.3466 154.136 91.2003 153.685 90.9198 153.321L88.0354 149.572C87.1785 148.458 87.7071 146.831 89.055 146.434L93.592 145.097C94.0333 144.967 94.4162 144.688 94.6762 144.309L97.3502 140.407Z" fill="#333333"/>
<path d="M124.15 140.407C124.945 139.248 126.655 139.248 127.45 140.407L130.124 144.309C130.384 144.688 130.767 144.967 131.208 145.097L135.745 146.434C137.093 146.831 137.622 148.458 136.765 149.572L133.88 153.321C133.6 153.685 133.453 154.136 133.466 154.595L133.596 159.324C133.635 160.728 132.251 161.734 130.927 161.263L126.47 159.678C126.037 159.524 125.563 159.524 125.13 159.678L120.673 161.263C119.349 161.734 117.965 160.728 118.004 159.324L118.134 154.595C118.147 154.136 118 153.685 117.72 153.321L114.835 149.572C113.979 148.458 114.507 146.831 115.855 146.434L120.392 145.097C120.833 144.967 121.216 144.688 121.476 144.309L124.15 140.407Z" fill="#333333"/>
<path d="M150.95 140.407C151.745 139.248 153.455 139.248 154.25 140.407L156.924 144.309C157.184 144.688 157.567 144.967 158.008 145.097L162.545 146.434C163.893 146.831 164.422 148.458 163.565 149.572L160.68 153.321C160.4 153.685 160.253 154.136 160.266 154.595L160.396 159.324C160.435 160.728 159.051 161.734 157.727 161.263L153.27 159.678C152.837 159.524 152.363 159.524 151.93 159.678L147.473 161.263C146.149 161.734 144.765 160.728 144.804 159.324L144.934 154.595C144.947 154.136 144.8 153.685 144.52 153.321L141.635 149.572C140.779 148.458 141.307 146.831 142.655 146.434L147.192 145.097C147.633 144.967 148.016 144.688 148.276 144.309L150.95 140.407Z" fill="#333333"/>
<defs>
<linearGradient id="paint0_linear_278_328" x1="86.9873" y1="142.5" x2="141.487" y2="178" gradientUnits="userSpaceOnUse">
<stop stop-color="#F2C94C"/>
<stop offset="1" stop-color="#F2994A"/>
</linearGradient>
<linearGradient id="paint1_linear_278_328" x1="173.5" y1="-59" x2="108.5" y2="276" gradientUnits="userSpaceOnUse">
<stop stop-color="white"/>
<stop offset="1" stop-color="white" stop-opacity="0"/>
</linearGradient>
</defs>
</svg>
