<svg data-v-3ad87630="" width="14" height="14" viewBox="0 0 44 28" fill="none" xmlns="http://www.w3.org/2000/svg"><path data-v-3ad87630="" d="M22 26C33.046 26 42 14 42 14C42 14 33.046 2 22 2C10.954 2 2 14 2 14C2 14 10.954 26 22 26Z" stroke="#FFFFFF" stroke-width="4" stroke-linejoin="round"/> <path data-v-3ad87630="" d="M22 19C23.3261 19 24.5979 18.4732 25.5355 17.5355C26.4732 16.5979 27 15.3261 27 14C27 12.6739 26.4732 11.4021 25.5355 10.4645C24.5979 9.52678 23.3261 9 22 9C20.6739 9 19.4021 9.52678 18.4645 10.4645C17.5268 11.4021 17 12.6739 17 14C17 15.3261 17.5268 16.5979 18.4645 17.5355C19.4021 18.4732 20.6739 19 22 19Z" stroke="#FFFFFF" stroke-width="4" stroke-linejoin="round"/></svg>