<svg width="197" height="197" viewBox="0 0 197 197" fill="none" xmlns="http://www.w3.org/2000/svg">
<circle cx="98.4999" cy="98.5" r="98.5" fill="black"/>
<circle cx="98.4999" cy="98.5" r="91.5" fill="url(#paint0_linear_278_439)"/>
<circle cx="98.4999" cy="98.5" r="74.5" stroke="black" stroke-opacity="0.15" stroke-width="12"/>
<path fill-rule="evenodd" clip-rule="evenodd" d="M36.7126 166C27.5786 157.636 20.1475 147.443 14.9999 136H181.975C176.827 147.443 169.396 157.636 160.262 166H36.7126Z" fill="url(#paint1_linear_278_439)"/>
<path fill-rule="evenodd" clip-rule="evenodd" d="M92.6072 196.827C88.2843 178.082 85.9999 158.558 85.9999 138.5C85.9999 88.9632 99.9337 42.6808 124.096 3.3584C166.086 14.6269 197 52.9533 197 98.5C197 152.9 152.9 197 98.4999 197C96.5215 197 94.5567 196.942 92.6072 196.827Z" fill="url(#paint2_linear_278_439)" fill-opacity="0.15"/>
<path d="M43.7501 140.407C44.5445 139.248 46.2552 139.248 47.0496 140.407L49.7236 144.309C49.9837 144.688 50.3666 144.967 50.8078 145.097L55.3449 146.434C56.6928 146.831 57.2214 148.458 56.3645 149.572L53.4801 153.321C53.1995 153.685 53.0533 154.136 53.0659 154.595L53.196 159.324C53.2346 160.728 51.8506 161.734 50.5266 161.263L46.07 159.678C45.6365 159.524 45.1632 159.524 44.7298 159.678L40.2731 161.263C38.9491 161.734 37.5651 160.728 37.6038 159.324L37.7338 154.595C37.7465 154.136 37.6002 153.685 37.3197 153.321L34.4353 149.572C33.5784 148.458 34.107 146.831 35.4549 146.434L39.9919 145.097C40.4332 144.967 40.8161 144.688 41.0761 144.309L43.7501 140.407Z" fill="white"/>
<path d="M70.5501 140.407C71.3445 139.248 73.0552 139.248 73.8496 140.407L76.5236 144.309C76.7836 144.688 77.1666 144.967 77.6078 145.097L82.1449 146.434C83.4928 146.831 84.0214 148.458 83.1644 149.572L80.28 153.321C79.9995 153.685 79.8533 154.136 79.8659 154.595L79.9959 159.324C80.0346 160.728 78.6506 161.734 77.3266 161.263L72.8699 159.678C72.4365 159.524 71.9632 159.524 71.5298 159.678L67.0731 161.263C65.7491 161.734 64.3651 160.728 64.4038 159.324L64.5338 154.595C64.5465 154.136 64.4002 153.685 64.1197 153.321L61.2353 149.572C60.3783 148.458 60.907 146.831 62.2548 146.434L66.7919 145.097C67.2331 144.967 67.6161 144.688 67.8761 144.309L70.5501 140.407Z" fill="white"/>
<path d="M97.3501 140.407C98.1445 139.248 99.8552 139.248 100.65 140.407L103.324 144.309C103.584 144.688 103.967 144.967 104.408 145.097L108.945 146.434C110.293 146.831 110.821 148.458 109.964 149.572L107.08 153.321C106.799 153.685 106.653 154.136 106.666 154.595L106.796 159.324C106.835 160.728 105.451 161.734 104.127 161.263L99.6699 159.678C99.2365 159.524 98.7632 159.524 98.3297 159.678L93.8731 161.263C92.5491 161.734 91.1651 160.728 91.2037 159.324L91.3338 154.595C91.3464 154.136 91.2002 153.685 90.9196 153.321L88.0352 149.572C87.1783 148.458 87.7069 146.831 89.0548 146.434L93.5919 145.097C94.0331 144.967 94.416 144.688 94.6761 144.309L97.3501 140.407Z" fill="white"/>
<path d="M124.15 140.407C124.945 139.248 126.655 139.248 127.45 140.407L130.124 144.309C130.384 144.688 130.767 144.967 131.208 145.097L135.745 146.434C137.093 146.831 137.621 148.458 136.765 149.572L133.88 153.321C133.6 153.685 133.453 154.136 133.466 154.595L133.596 159.324C133.635 160.728 132.251 161.734 130.927 161.263L126.47 159.678C126.037 159.524 125.563 159.524 125.13 159.678L120.673 161.263C119.349 161.734 117.965 160.728 118.004 159.324L118.134 154.595C118.147 154.136 118 153.685 117.72 153.321L114.835 149.572C113.978 148.458 114.507 146.831 115.855 146.434L120.392 145.097C120.833 144.967 121.216 144.688 121.476 144.309L124.15 140.407Z" fill="white"/>
<path d="M150.95 140.407C151.745 139.248 153.455 139.248 154.25 140.407L156.924 144.309C157.184 144.688 157.567 144.967 158.008 145.097L162.545 146.434C163.893 146.831 164.421 148.458 163.565 149.572L160.68 153.321C160.4 153.685 160.253 154.136 160.266 154.595L160.396 159.324C160.435 160.728 159.051 161.734 157.727 161.263L153.27 159.678C152.837 159.524 152.363 159.524 151.93 159.678L147.473 161.263C146.149 161.734 144.765 160.728 144.804 159.324L144.934 154.595C144.947 154.136 144.8 153.685 144.52 153.321L141.635 149.572C140.778 148.458 141.307 146.831 142.655 146.434L147.192 145.097C147.633 144.967 148.016 144.688 148.276 144.309L150.95 140.407Z" fill="white"/>
<path d="M71.141 64.3384C72.938 62.5539 75.8386 62.5539 77.6356 64.3384C79.45 66.1402 79.45 69.0747 77.6356 70.8766L53.8555 94.4915C52.0585 96.276 49.1579 96.276 47.3609 94.4915C45.5464 92.6896 45.5464 89.7551 47.3609 87.9533L71.141 64.3384Z" fill="white"/>
<path d="M77.6355 112.123C79.45 113.925 79.45 116.86 77.6356 118.662C75.8385 120.446 72.938 120.446 71.141 118.662L47.3608 95.0467C45.5464 93.2448 45.5464 90.3103 47.3608 88.5085C49.1578 86.724 52.0584 86.724 53.8554 88.5085L77.6355 112.123Z" fill="white"/>
<path d="M94.9731 88.5085C96.7701 86.724 99.6707 86.724 101.468 88.5085C103.282 90.3104 103.282 93.2449 101.468 95.0467L77.6876 118.662C75.8906 120.446 72.99 120.446 71.193 118.662C69.3786 116.86 69.3786 113.925 71.193 112.123L94.9731 88.5085Z" fill="white"/>
<path d="M119.312 64.3384C121.109 62.5539 124.01 62.5539 125.807 64.3384C127.621 66.1402 127.621 69.0747 125.807 70.8766L102.027 94.4915C100.23 96.276 97.3293 96.276 95.5323 94.4915C93.7178 92.6896 93.7178 89.7551 95.5323 87.9533L119.312 64.3384Z" fill="white"/>
<path d="M125.859 118.662C124.062 120.446 121.161 120.446 119.364 118.662C117.55 116.86 117.55 113.925 119.364 112.123L143.145 88.5085C144.942 86.724 147.842 86.724 149.639 88.5085C151.454 90.3103 151.454 93.2448 149.639 95.0467L125.859 118.662Z" fill="white"/>
<path d="M119.364 70.8766C117.55 69.0747 117.55 66.1402 119.364 64.3384C121.161 62.5539 124.062 62.5539 125.859 64.3384L149.639 87.9533C151.454 89.7551 151.454 92.6896 149.639 94.4915C147.842 96.276 144.942 96.276 143.145 94.4915L119.364 70.8766Z" fill="white"/>
<path d="M44.5423 85.115C42.7766 86.8684 41.9307 89.196 42.0045 91.4996C41.9305 93.8034 42.7764 96.1313 44.5423 97.8849L68.3224 121.5C70.0057 123.171 72.2072 124.005 74.4073 124C76.612 124.008 78.8193 123.175 80.5062 121.5L104.286 97.885C104.38 97.7919 104.471 97.6972 104.56 97.601C104.656 97.5132 104.752 97.4228 104.845 97.3297L122.586 79.7127L134.455 91.5L116.546 109.285C113.156 112.651 113.156 118.134 116.546 121.5C119.903 124.833 125.321 124.833 128.678 121.5L152.458 97.8849C154.223 96.1315 155.069 93.8039 154.996 91.5003C155.07 89.1965 154.224 86.8686 152.458 85.115L128.678 61.5001C126.992 59.8267 124.788 58.9934 122.585 59C120.383 58.9935 118.179 59.8268 116.494 61.5001L92.7137 85.115C92.62 85.2081 92.5289 85.3028 92.4404 85.399C92.3436 85.4868 92.2483 85.5772 92.1546 85.6703L74.4143 103.287L62.5445 91.5L80.4541 73.7148C83.8438 70.3487 83.8438 64.8663 80.4541 61.5001C77.0973 58.1666 71.6792 58.1666 68.3224 61.5001L44.5423 85.115Z" stroke="black" stroke-opacity="0.54" stroke-width="8"/>
<defs>
<linearGradient id="paint0_linear_278_439" x1="156.023" y1="160.862" x2="-0.917005" y2="95.9779" gradientUnits="userSpaceOnUse">
<stop stop-color="#27AE60"/>
<stop offset="0.255208" stop-color="#2F80ED"/>
<stop offset="0.510417" stop-color="#9B51E0"/>
<stop offset="0.75" stop-color="#EB5757"/>
<stop offset="0.979167" stop-color="#F2994A"/>
</linearGradient>
<linearGradient id="paint1_linear_278_439" x1="86.9872" y1="142.5" x2="141.487" y2="178" gradientUnits="userSpaceOnUse">
<stop stop-color="#F2C94C"/>
<stop offset="1" stop-color="#F2994A"/>
</linearGradient>
<linearGradient id="paint2_linear_278_439" x1="173.5" y1="-59" x2="108.5" y2="276" gradientUnits="userSpaceOnUse">
<stop stop-color="white"/>
<stop offset="1" stop-color="white" stop-opacity="0"/>
</linearGradient>
</defs>
</svg>
