<svg data-v-3ad87630="" width="14" height="14" viewBox="0 0 24 22" fill="none" xmlns="http://www.w3.org/2000/svg"><path data-v-3ad87630="" d="M11.074 1.633C11.394 0.789 12.605 0.789 12.926 1.633L14.996 7.367C15.141 7.747 15.51 8 15.922 8H21.009C21.949 8 22.359 9.17 21.62 9.743L18 13C17.8378 13.1247 17.7193 13.2975 17.6615 13.4937C17.6036 13.6898 17.6094 13.8993 17.678 14.092L19 19.695C19.322 20.595 18.28 21.368 17.492 20.814L12.575 17.694C12.4066 17.5757 12.2058 17.5122 12 17.5122C11.7942 17.5122 11.5934 17.5757 11.425 17.694L6.50799 20.814C5.72099 21.368 4.67798 20.594 4.99998 19.695L6.32199 14.092C6.39056 13.8993 6.39634 13.6898 6.33849 13.4937C6.28065 13.2975 6.16214 13.1247 5.99999 13L2.37999 9.743C1.63999 9.17 2.05198 8 2.98998 8H8.07698C8.27728 8.00067 8.47305 7.9405 8.6384 7.82747C8.80375 7.71444 8.93089 7.55387 9.00299 7.367L11.073 1.633H11.074Z" stroke="#FFFFFF" stroke-width="2" stroke-linecap="round" stroke-linejoin="round"/></svg>